HIERARCHY
ROOT Hips
{
 OFFSET 0.000000 0.000000 0.000000
 CHANNELS 6 Xposition Yposition Zposition Yrotation Xrotation Zrotation
 JOINT Chest
 {
  OFFSET 0.000000 9.581000 -0.001100
  CHANNELS 3 Yrotation Xrotation Zrotation
  JOINT Chest2
  {
   OFFSET 0.000000 9.561100 0.002200
   CHANNELS 3 Yrotation Xrotation Zrotation
   JOINT Chest3
   {
    OFFSET 0.000000 9.521100 0.000000
    CHANNELS 3 Yrotation Xrotation Zrotation
    JOINT Chest4
    {
     OFFSET 0.000000 9.511400 0.000000
     CHANNELS 3 Yrotation Xrotation Zrotation
     JOINT Neck
     {
      OFFSET 0.000000 14.375100 0.000000
      CHANNELS 3 Yrotation Xrotation Zrotation
      JOINT Head
      {
       OFFSET 0.000000 8.901200 0.004600
       CHANNELS 3 Yrotation Xrotation Zrotation
       End Site
       {
        OFFSET 0.000000 16.962200 0.002400
       }
      }
     }
     JOINT RightCollar
     {
      OFFSET -2.920100 9.518800 0.000000
      CHANNELS 3 Yrotation Xrotation Zrotation
      JOINT RightShoulder
      {
       OFFSET -13.664500 0.000000 0.000000
       CHANNELS 3 Yrotation Xrotation Zrotation
       JOINT RightElbow
       {
        OFFSET 0.000000 -29.999200 0.000000
        CHANNELS 3 Yrotation Xrotation Zrotation
        JOINT RightWrist
        {
         OFFSET 0.000000 -24.253600 0.000000
         CHANNELS 3 Yrotation Xrotation Zrotation
         End Site
         {
          OFFSET 0.000000 -17.918900 0.000000
         }
        }
       }
      }
     }
     JOINT LeftCollar
     {
      OFFSET 2.920100 9.518800 0.000000
      CHANNELS 3 Yrotation Xrotation Zrotation
      JOINT LeftShoulder
      {
       OFFSET 13.664500 0.000000 0.000000
       CHANNELS 3 Yrotation Xrotation Zrotation
       JOINT LeftElbow
       {
        OFFSET 0.000000 -29.999200 0.000000
        CHANNELS 3 Yrotation Xrotation Zrotation
        JOINT LeftWrist
        {
         OFFSET 0.000000 -24.253600 0.000000
         CHANNELS 3 Yrotation Xrotation Zrotation
         End Site
         {
          OFFSET 0.000000 -17.918900 0.000000
         }
        }
       }
      }
     }
    }
   }
  }
 }
 JOINT RightHip
 {
  OFFSET -7.797300 0.005300 0.000500
  CHANNELS 3 Yrotation Xrotation Zrotation
  JOINT RightKnee
  {
   OFFSET 0.000000 -40.663400 -0.000500
   CHANNELS 3 Yrotation Xrotation Zrotation
   JOINT RightAnkle
   {
    OFFSET 0.000000 -39.523700 -0.000900
    CHANNELS 3 Yrotation Xrotation Zrotation
    JOINT RightToe
    {
     OFFSET 0.000000 -6.418000 14.485300
     CHANNELS 3 Yrotation Xrotation Zrotation
     End Site
     {
      OFFSET 0.000000 -1.465200 6.326400
     }
    }
   }
  }
 }
 JOINT LeftHip
 {
  OFFSET 7.797300 0.005300 0.000500
  CHANNELS 3 Yrotation Xrotation Zrotation
  JOINT LeftKnee
  {
   OFFSET 0.000000 -40.663400 -0.000500
   CHANNELS 3 Yrotation Xrotation Zrotation
   JOINT LeftAnkle
   {
    OFFSET 0.000000 -39.523700 -0.000900
    CHANNELS 3 Yrotation Xrotation Zrotation
    JOINT LeftToe
    {
     OFFSET 0.000000 -6.418000 14.485300
     CHANNELS 3 Yrotation Xrotation Zrotation
     End Site
     {
      OFFSET 0.000000 -1.465200 6.326400
     }
    }
   }
  }
 }
}
MOTION
Frames: 5
Frame Time: 0.008333
-14.348279 126.912437 25.219791 -168.139505 -48.837578 -2.677373 -2.431448 25.778934 -0.385287 -0.379620 4.205836 0.008307 -0.597034 6.754903 0.013315 -1.958556 21.237207 -0.227543 0.607022 16.339253 -1.131359 0.928893 -8.676367 -1.323672 -0.830021 2.692713 0.226635 4.438268 -2.945096 -7.736096 -87.364773 -62.818764 140.515405 3.235278 16.693674 -17.800424 -8.157439 -1.200661 0.560265 -9.957680 -3.096437 10.161499 55.913802 -46.814463 -108.084777 4.499609 0.988850 20.014361 -5.173627 -23.631025 -5.574502 -6.234482 78.429623 -5.484253 6.815764 -14.670380 2.523625 0.000046 0.000039 0.000020 6.311038 5.799850 1.514149 128.141258 65.331357 147.610036 6.391998 12.389133 0.399497 0.000511 -0.001861 0.000227
-14.348151 126.911996 25.220089 -168.142424 -48.831419 -2.673783 -2.428393 25.784793 -0.383412 -0.378618 4.213451 0.012251 -0.595940 6.762069 0.012199 -1.953895 21.245801 -0.223710 0.633531 16.206967 -1.130325 0.917713 -8.715969 -1.324736 -0.818199 2.680555 0.233536 4.420608 -2.933200 -7.730625 -87.408370 -62.830819 140.559902 3.214949 16.696646 -17.816302 -8.170339 -1.222023 0.563515 -9.951285 -3.104700 10.162586 55.887133 -46.810989 -108.060242 4.495972 0.974073 20.015941 -5.170424 -23.638133 -5.573230 -6.225083 78.429533 -5.475055 6.802151 -14.670269 2.527608 -0.000653 -0.000138 -0.000289 6.315889 5.793899 1.513638 128.141878 65.330368 147.611900 6.368814 12.352821 0.487559 0.003729 -0.010801 0.001652
-14.347967 126.912015 25.219936 -168.147346 -48.828424 -2.669204 -2.424997 25.785738 -0.383497 -0.375900 4.230264 0.014405 -0.594033 6.767843 0.013355 -1.949136 21.254513 -0.221179 0.631204 16.148008 -1.131265 0.928455 -8.825559 -1.331882 -0.824814 2.651451 0.234151 4.421271 -2.914184 -7.718865 -87.384170 -62.830222 140.538218 3.224802 16.693056 -17.818345 -8.185586 -1.240560 0.574954 -9.940626 -3.097473 10.163111 55.885454 -46.820978 -108.058537 4.499223 0.961786 20.009527 -5.166542 -23.640817 -5.572701 -6.210797 78.431095 -5.461282 6.795601 -14.676326 2.528468 -0.000679 -0.000225 -0.000301 6.326011 5.793148 1.516697 128.137881 65.332572 147.612414 6.356738 12.334208 0.531568 0.005875 -0.014659 0.002602
-14.347865 126.912215 25.219593 -168.150041 -48.826198 -2.665948 -2.420730 25.799222 -0.378612 -0.375239 4.234677 0.014602 -0.590159 6.774283 0.010804 -1.944044 21.263100 -0.218839 0.626724 16.089659 -1.129745 0.934451 -8.930321 -1.340120 -0.835533 2.623740 0.236642 4.426320 -2.896888 -7.707483 -87.366291 -62.828395 140.520910 3.236361 16.692629 -17.824756 -8.217112 -1.243850 0.591389 -9.913637 -3.101916 10.163267 55.887274 -46.837276 -108.058985 4.525412 0.969559 20.027138 -5.162884 -23.640211 -5.571267 -6.226041 78.429691 -5.475900 6.792474 -14.689340 2.525947 -0.000317 -0.001326 -0.000140 6.327486 5.792485 1.516810 128.138848 65.329256 147.611284 6.362256 12.340422 0.503822 0.004394 -0.009910 0.001947
-14.347645 126.912851 25.218812 -168.151802 -48.826758 -2.664725 -2.402631 25.833373 -0.368060 -0.385412 4.220247 0.011868 -0.586506 6.775806 0.012595 -1.936105 21.278210 -0.213986 0.628650 15.989479 -1.137283 0.926337 -8.987474 -1.339197 -0.842954 2.600214 0.242187 4.426714 -2.884885 -7.703354 -87.373012 -62.828261 140.527633 3.221863 16.695854 -17.835107 -8.235428 -1.273761 0.598793 -9.909740 -3.074620 10.165745 55.898980 -46.859653 -108.065584 4.531368 0.959867 20.015638 -5.159025 -23.637306 -5.569133 -6.235430 78.430345 -5.484656 6.789338 -14.696481 2.526023 -0.000126 -0.001401 -0.000056 6.328193 5.792224 1.519548 128.151119 65.329997 147.621460 6.386801 12.373381 0.417159 0.001348 -0.001445 0.000597
